<svg width="147" height="41" viewBox="0 0 147 41" fill="none" xmlns="http://www.w3.org/2000/svg">
<path d="M54.872 30V13.08H57.968V27.384H65.936V30H54.872ZM68.0617 30V17.88H71.0617V30H68.0617ZM67.8937 15.6V12.672H71.2297V15.6H67.8937ZM74.3195 30V20.904C74.3195 20.408 74.3035 19.904 74.2715 19.392C74.2395 18.88 74.1915 18.376 74.1275 17.88H77.0315L77.2715 20.28H76.9835C77.3675 19.432 77.9355 18.784 78.6875 18.336C79.4395 17.872 80.3115 17.64 81.3035 17.64C82.7275 17.64 83.7995 18.04 84.5195 18.84C85.2395 19.64 85.5995 20.888 85.5995 22.584V30H82.5995V22.728C82.5995 21.752 82.4075 21.056 82.0235 20.64C81.6555 20.208 81.0955 19.992 80.3435 19.992C79.4155 19.992 78.6795 20.28 78.1355 20.856C77.5915 21.432 77.3195 22.2 77.3195 23.16V30H74.3195ZM88.7804 30V12.336H91.7804V23.04H91.8284L96.7484 17.88H100.372L94.2524 24.288L94.2764 23.088L100.804 30H97.0844L91.8284 24.576H91.7804V30H88.7804ZM104.961 30L100.233 17.88H103.329L106.737 27.312H106.113L109.569 17.88H111.705L115.137 27.312H114.585L117.969 17.88H120.897L116.169 30H113.529L109.905 20.352H111.177L107.625 30H104.961ZM128.41 30.24C126.378 30.24 124.786 29.68 123.634 28.56C122.482 27.44 121.906 25.904 121.906 23.952C121.906 22.688 122.154 21.584 122.65 20.64C123.146 19.696 123.834 18.96 124.714 18.432C125.61 17.904 126.65 17.64 127.834 17.64C129.002 17.64 129.978 17.888 130.762 18.384C131.546 18.88 132.138 19.576 132.538 20.472C132.954 21.368 133.162 22.416 133.162 23.616V24.408H124.33V22.824H131.026L130.618 23.16C130.618 22.04 130.378 21.184 129.898 20.592C129.434 20 128.754 19.704 127.858 19.704C126.866 19.704 126.098 20.056 125.554 20.76C125.026 21.464 124.762 22.448 124.762 23.712V24.024C124.762 25.336 125.082 26.32 125.722 26.976C126.378 27.616 127.298 27.936 128.482 27.936C129.17 27.936 129.81 27.848 130.402 27.672C131.01 27.48 131.586 27.176 132.13 26.76L133.018 28.776C132.442 29.24 131.754 29.6 130.954 29.856C130.154 30.112 129.306 30.24 128.41 30.24ZM135.702 30V12.336H138.702V30H135.702ZM141.96 30V12.336H144.96V30H141.96Z" fill="#233348"/>
<circle cx="20.5" cy="20.5" r="20.5" fill="#458FF6"/>
<path d="M15.028 31V12.67H18.382V28.166H27.014V31H15.028Z" fill="white"/>
</svg>
