<svg width="102" height="114" viewBox="0 0 102 114" fill="none" xmlns="http://www.w3.org/2000/svg">
<path d="M80.7393 94.9999C44.48 95.0574 16.9613 63.9326 17 23.7619C17 21.1386 18.9028 19 21.25 19H32.4673C34.5735 19 36.3627 20.7296 36.672 23.0581C37.4132 28.6387 38.867 34.0716 40.9891 39.1908L41.4258 40.2444C42.0331 41.7093 41.6214 43.4499 40.4459 44.3881C36.972 47.1608 35.6444 52.7419 38.3507 57.0967C41.7468 62.5615 46.0277 67.345 50.9162 71.1389C54.8123 74.1628 59.8052 72.6792 62.2859 68.7973C63.126 67.4828 64.6842 67.0225 65.9957 67.7015L66.934 68.1873C71.5147 70.5589 76.3761 72.1837 81.3698 73.012C83.4532 73.3576 85 75.3572 85 77.7113V90.2499C85 92.8733 83.0926 94.9999 80.7454 94.9999L80.7393 94.9999Z" fill="url(#paint0_linear_71_8)"/>
<defs>
<linearGradient id="paint0_linear_71_8" x1="51" y1="19" x2="51" y2="95" gradientUnits="userSpaceOnUse">
<stop stop-color="#539EFD"/>
<stop offset="0.979167" stop-color="#AFF4FF"/>
<stop offset="1" stop-color="#62AFFD" stop-opacity="0"/>
</linearGradient>
</defs>
</svg>
